<?xml version="1.0" encoding="utf-8"?>
<svg width="100%" height="100%" viewBox="0 0 1200 1080" version="1.1" xmlns="http://www.w3.org/2000/svg" style="fill-rule:evenodd;clip-rule:evenodd;stroke-linejoin:round;stroke-miterlimit:2;">
  <path d="M 0 0 H 1200 V 1080 H 0 V 0 Z" id="Artboard1" style="fill:rgb(46,46,46);"/>
  <path d="M 522.703 798.743 L 535.336 764.384 L 542.25 764.384 L 554.695 798.743 L 548.18 798.743 L 544.781 789.04 L 532.758 789.04 L 529.336 798.743 L 522.703 798.743 Z M 534.352 784.306 L 543.164 784.306 C 540.352 775.29 538.906 770.634 538.828 770.337 L 534.352 784.306 Z" style="fill: white; fill-rule: nonzero; stroke-width: 1;"/>
  <path d="M 556.148 798.743 L 556.148 795.017 L 568.898 777.251 L 556.758 777.251 L 556.758 772.986 L 575.695 772.986 L 575.695 777.181 L 563.625 794.267 L 576.117 794.267 L 576.117 798.743 L 556.148 798.743 Z" style="fill: white; fill-rule: nonzero; stroke-width: 1;"/>
  <path d="M 587.437 799.236 C 585.047 799.236 583.113 798.575 581.637 797.255 C 580.16 795.935 579.422 794.032 579.422 791.548 C 579.422 788.876 580.297 786.896 582.047 785.607 C 583.797 784.318 586.437 783.501 589.969 783.157 C 590.453 783.095 590.977 783.032 591.539 782.97 C 592.102 782.907 592.734 782.845 593.437 782.782 C 594.141 782.72 594.695 782.665 595.102 782.618 L 595.102 781.259 C 595.102 779.696 594.742 778.56 594.023 777.849 C 593.305 777.138 592.211 776.782 590.742 776.782 C 588.648 776.782 586.062 777.368 582.984 778.54 C 582.969 778.493 582.711 777.782 582.211 776.407 C 581.711 775.032 581.453 774.329 581.437 774.298 C 584.469 773.001 587.75 772.353 591.281 772.353 C 594.75 772.353 597.273 773.107 598.852 774.614 C 600.43 776.122 601.219 778.564 601.219 781.939 L 601.219 798.743 L 596.672 798.743 C 596.656 798.681 596.484 798.157 596.156 797.173 C 595.828 796.189 595.664 795.665 595.664 795.603 C 594.383 796.853 593.129 797.771 591.902 798.357 C 590.676 798.943 589.187 799.236 587.437 799.236 Z M 589.102 794.876 C 590.523 794.876 591.762 794.536 592.816 793.857 C 593.871 793.177 594.625 792.353 595.078 791.384 L 595.078 786.415 C 595.031 786.415 594.621 786.446 593.848 786.509 C 593.074 786.571 592.656 786.603 592.594 786.603 C 590.109 786.821 588.289 787.29 587.133 788.009 C 585.977 788.728 585.398 789.884 585.398 791.478 C 585.398 792.571 585.719 793.411 586.359 793.997 C 587 794.583 587.914 794.876 589.102 794.876 Z" style="fill: white; fill-rule: nonzero; stroke-width: 1;"/>
  <path d="M 607.406 798.743 L 607.406 763.493 L 613.547 763.095 L 613.547 770.525 C 613.547 770.884 613.523 771.88 613.477 773.513 C 613.43 775.146 613.406 775.978 613.406 776.009 C 615.453 773.571 618.203 772.353 621.656 772.353 C 624.531 772.353 626.762 773.177 628.348 774.825 C 629.934 776.474 630.727 779.009 630.727 782.431 L 630.727 798.743 L 624.586 798.743 L 624.586 783.111 C 624.586 781.001 624.25 779.454 623.578 778.47 C 622.906 777.486 621.766 776.993 620.156 776.993 C 618.781 776.993 617.562 777.341 616.5 778.036 C 615.437 778.732 614.641 779.626 614.109 780.72 C 613.734 782.157 613.547 784.032 613.547 786.345 L 613.547 798.743 L 607.406 798.743 Z" style="fill: white; fill-rule: nonzero; stroke-width: 1;"/>
  <path d="M 643.57 799.236 C 641.18 799.236 639.246 798.575 637.769 797.255 C 636.293 795.935 635.555 794.032 635.555 791.548 C 635.555 788.876 636.43 786.896 638.18 785.607 C 639.93 784.318 642.57 783.501 646.102 783.157 C 646.586 783.095 647.109 783.032 647.672 782.97 C 648.234 782.907 648.867 782.845 649.57 782.782 C 650.273 782.72 650.828 782.665 651.234 782.618 L 651.234 781.259 C 651.234 779.696 650.875 778.56 650.156 777.849 C 649.437 777.138 648.344 776.782 646.875 776.782 C 644.781 776.782 642.195 777.368 639.117 778.54 C 639.102 778.493 638.844 777.782 638.344 776.407 C 637.844 775.032 637.586 774.329 637.57 774.298 C 640.602 773.001 643.883 772.353 647.414 772.353 C 650.883 772.353 653.406 773.107 654.984 774.614 C 656.562 776.122 657.352 778.564 657.352 781.939 L 657.352 798.743 L 652.805 798.743 C 652.789 798.681 652.617 798.157 652.289 797.173 C 651.961 796.189 651.797 795.665 651.797 795.603 C 650.516 796.853 649.262 797.771 648.035 798.357 C 646.809 798.943 645.32 799.236 643.57 799.236 Z M 645.234 794.876 C 646.656 794.876 647.894 794.536 648.949 793.857 C 650.004 793.177 650.758 792.353 651.211 791.384 L 651.211 786.415 C 651.164 786.415 650.754 786.446 649.98 786.509 C 649.207 786.571 648.789 786.603 648.727 786.603 C 646.242 786.821 644.422 787.29 643.266 788.009 C 642.109 788.728 641.531 789.884 641.531 791.478 C 641.531 792.571 641.852 793.411 642.492 793.997 C 643.133 794.583 644.047 794.876 645.234 794.876 Z" style="fill: white; fill-rule: nonzero; stroke-width: 1;"/>
  <path d="M 663.562 798.743 L 663.562 772.986 L 668.719 772.986 L 669.516 776.923 C 671.203 774.22 673.648 772.868 676.852 772.868 C 677.523 772.868 678.07 772.9 678.492 772.962 L 678.398 778.095 C 677.773 778.001 677.125 777.954 676.453 777.954 C 674.187 777.954 672.496 778.556 671.379 779.759 C 670.262 780.962 669.703 782.634 669.703 784.775 L 669.703 798.743 L 663.562 798.743 Z" style="fill: white; fill-rule: nonzero; stroke-width: 1;"/>
  <path d="M 501.47 561.769 C 499.726 561.447 498.003 561.109 496.326 560.755 C 488.797 559.167 482.238 557.269 474.493 554.094 C 466.748 550.92 457.817 546.468 450.479 541.602 C 443.14 536.736 437.393 531.457 433.426 526.628 C 429.459 521.8 427.271 517.425 425.565 512.757 C 423.858 508.09 422.633 503.131 421.641 497.356 C 420.65 491.579 419.891 484.987 419.512 478.599 C 419.133 472.21 419.133 466.026 419.308 459.754 C 419.482 453.482 419.832 447.123 419.716 441.61 C 419.599 436.096 419.016 431.429 418.053 427.404 C 417.09 423.377 415.748 419.994 413.357 416.26 C 410.965 412.527 407.523 408.443 405.51 405.497 C 403.497 402.55 402.914 400.742 403.162 398.984 C 403.409 397.226 404.488 395.52 406.224 393.843 C 407.96 392.165 410.352 390.517 412.876 389.226 C 415.398 387.936 418.053 387.002 422.37 386.594 C 426.688 386.185 432.668 386.302 438.852 387.191 C 445.037 388.081 451.425 389.744 457.93 391.961 C 464.435 394.178 471.057 396.949 476.964 399.867 C 482.871 402.783 488.064 405.846 493.809 410.411 C 499.556 414.977 505.857 421.045 512.582 428.232 C 519.305 435.419 526.453 443.724 532.254 451.405 C 532.544 451.789 532.83 452.172 533.113 452.551 C 533.535 450.434 534.022 448.275 534.576 446.086 C 536.633 437.96 539.603 429.401 542.436 421.485 C 545.269 413.569 547.967 406.294 549.914 400.192 C 551.86 394.09 553.056 389.161 553.873 383.604 C 554.69 378.046 555.128 371.862 555.083 365.065 C 555.039 358.269 554.514 350.859 553.625 344.178 C 552.735 337.499 551.481 331.548 551.028 325.889 C 550.577 320.23 550.927 314.862 552.181 310.414 C 553.435 305.965 555.594 302.436 557.698 300.498 C 559.801 298.561 561.849 298.215 564.591 298.478 C 567.333 298.74 570.769 299.611 575.871 301.884 C 580.972 304.156 587.74 307.832 594.36 312.608 C 600.979 317.384 607.45 323.26 612.954 329.87 C 618.459 336.479 622.996 343.822 626.688 351.062 C 630.381 358.302 633.228 365.439 635.703 373.731 C 638.178 382.023 640.282 391.47 641.664 398.525 C 643.046 405.579 643.706 410.24 643.664 417.79 C 643.626 424.83 642.978 434.379 642.272 441.858 C 644.373 439.433 646.559 437.029 648.844 434.677 C 654.663 428.688 661.121 423.043 669.894 416.18 C 678.667 409.318 689.751 401.237 700.816 394.426 C 711.88 387.617 722.925 382.076 732.717 378.007 C 742.51 373.937 751.048 371.338 759.073 370.389 C 767.096 369.44 774.604 370.142 780.359 371.606 C 786.115 373.071 790.116 375.299 792.776 377.485 C 795.438 379.672 796.758 381.817 796.881 384.89 C 797.005 387.963 795.932 391.966 793.643 396.875 C 791.353 401.783 787.847 407.601 785.042 413.396 C 782.236 419.193 780.133 424.969 778.544 430.393 C 776.956 435.818 775.883 440.893 773.367 450.112 C 770.85 459.333 766.89 472.7 762.868 483.054 C 758.845 493.409 754.761 500.752 749.48 508.137 C 744.2 515.521 737.724 522.947 730.916 528.68 C 724.109 534.415 716.973 538.458 708.288 542.191 C 701.772 544.993 694.386 547.62 687.224 549.57 C 691.861 550.814 696.846 552.28 702.246 553.97 C 710.95 556.692 720.727 559.993 729.637 563.994 C 738.549 567.996 746.594 572.698 753.627 578.103 C 760.661 583.507 766.683 589.612 771.572 595.636 C 776.461 601.659 780.215 607.599 783.453 613.581 C 786.692 619.563 789.414 625.586 791.497 630.412 C 793.581 635.239 795.025 638.869 795.438 642.48 C 795.851 646.089 795.232 649.678 794.035 652.689 C 792.838 655.702 791.065 658.135 789.022 659.579 C 786.981 661.023 784.67 661.476 781.659 661.065 C 778.647 660.652 774.934 659.373 772.046 658.548 C 769.159 657.722 767.096 657.352 764.456 657.66 C 761.816 657.971 758.598 658.96 755.524 660.301 C 752.451 661.642 749.522 663.333 745.789 664.302 C 742.055 665.272 737.517 665.519 732.504 664.881 C 727.492 664.241 722.006 662.714 716.292 660.239 C 710.578 657.764 704.638 654.34 699.443 650.767 C 694.249 647.195 689.801 643.475 686.029 640.071 C 683.762 638.024 681.74 636.092 679.702 634.059 C 680.342 635.89 680.975 637.813 681.613 639.868 C 683.872 647.155 686.18 656.092 687.903 664.42 C 689.624 672.749 690.759 680.469 691.964 688.56 C 693.167 696.652 694.441 705.115 695.118 712.979 C 695.795 720.844 695.874 728.109 695.238 733.103 C 694.601 738.099 693.247 740.823 691.774 742.764 C 690.301 744.704 688.708 745.859 686.559 746.066 C 684.409 746.272 681.702 745.53 677.362 743.507 C 673.023 741.484 667.052 738.181 658.666 734.046 C 650.281 729.91 639.481 724.941 630.899 720.997 C 622.319 717.053 615.957 714.133 609.567 710.106 C 603.176 706.077 596.759 700.939 591.185 695.306 C 585.611 689.671 580.882 683.542 576.997 676.04 C 573.112 668.537 570.072 659.663 568.186 650.732 C 567.376 646.895 566.779 643.047 566.35 639.24 C 564.179 641.502 561.846 643.666 559.404 645.817 C 553.529 650.992 547.029 656.09 540.706 660.289 C 534.383 664.489 528.236 667.788 521.058 670.614 C 513.88 673.44 505.671 675.792 499.214 678.267 C 492.758 680.742 488.055 683.342 483.703 687.034 C 479.351 690.726 475.349 695.511 472.832 698.451 C 470.316 701.39 469.285 702.483 467.975 703.256 C 466.665 704.03 465.077 704.484 463.148 704.267 C 461.219 704.051 458.951 703.164 456.671 701.298 C 454.392 699.431 452.102 696.584 450.154 693.078 C 448.204 689.571 446.595 685.404 444.986 680.103 C 443.377 674.802 441.768 668.366 441.149 661.538 C 440.53 654.711 440.902 647.492 442.119 640.376 C 443.336 633.259 445.399 626.246 447.833 619.769 C 450.266 613.292 453.072 607.352 455.692 602.608 C 458.312 597.863 460.745 594.315 465.82 589.251 C 470.893 584.187 478.608 577.607 485.394 572.482 C 491.234 568.071 496.387 564.736 501.47 561.769 Z M 606.299 516.346 C 594.178 509.754 578.886 513.936 572.172 525.677 C 565.458 537.419 569.849 552.302 581.971 558.894 C 594.093 565.485 609.385 561.304 616.098 549.561 C 622.812 537.82 618.421 522.937 606.299 516.346 Z M 583.814 335.866 C 581.011 330.887 576.568 327.084 576.568 327.084 C 576.568 327.084 578.328 332.639 581.024 337.435 C 582.002 339.172 582.946 340.967 583.846 342.854 C 586.449 348.318 588.705 354.645 590.632 360.817 C 592.559 366.988 594.147 372.962 595.565 380.024 C 596.983 387.087 598.234 395.256 599.163 402.534 C 600.093 409.812 600.7 416.182 601.019 422.769 C 601.338 429.358 601.365 436.15 600.847 442.53 C 600.536 446.377 600.024 450.1 599.43 453.787 C 598.846 457.408 599.759 461.329 599.759 461.329 C 599.759 461.329 601.997 457.976 602.589 454.296 C 603.191 450.56 603.716 446.75 604.037 442.79 C 604.569 436.224 604.538 429.293 604.216 422.615 C 603.893 415.927 603.276 409.469 602.338 402.129 C 601.401 394.798 600.141 386.56 598.702 379.394 C 597.26 372.215 595.642 366.124 593.687 359.863 C 591.738 353.62 589.435 347.147 586.735 341.478 C 585.8 339.516 584.82 337.657 583.814 335.866 Z M 648.097 670.423 C 650.059 675.929 653.125 681.092 653.125 681.092 C 653.125 681.092 652.481 675.119 650.504 669.568 C 649.696 667.299 648.874 665.06 648.031 662.874 C 645.828 657.168 643.488 651.841 640.964 646.43 C 638.443 641.022 635.729 635.511 632.733 629.997 C 629.737 624.482 626.453 618.955 622.648 613.468 C 620.53 610.413 618.253 607.376 615.915 604.357 C 613.11 600.735 609.258 597.97 609.258 597.97 C 609.258 597.97 611.113 602.325 613.895 605.917 C 616.217 608.916 618.465 611.916 620.549 614.921 C 624.288 620.312 627.524 625.757 630.488 631.213 C 633.453 636.669 636.142 642.131 638.649 647.507 C 641.156 652.884 643.471 658.154 645.646 663.791 C 646.48 665.951 647.295 668.169 648.097 670.423 Z M 485.136 629.657 C 482.134 634.736 480.753 640.644 480.753 640.644 C 480.753 640.644 484.943 636.271 487.891 631.287 C 489.446 628.657 491.055 626.07 492.762 623.555 C 496.627 617.859 501.033 612.473 505.564 607.595 C 510.096 602.716 514.752 598.347 518.935 594.936 C 523.116 591.527 526.819 589.071 530.839 586.797 C 531.394 586.484 531.956 586.173 532.522 585.866 C 537.906 582.942 542.881 578.886 542.881 578.886 C 542.881 578.886 536.547 580.041 530.996 583.053 C 530.414 583.369 529.836 583.689 529.264 584.012 C 525.107 586.362 521.236 588.929 516.912 592.457 C 512.599 595.974 507.841 600.441 503.219 605.417 C 498.595 610.396 494.085 615.906 490.114 621.759 C 488.36 624.343 486.716 626.987 485.136 629.657 Z M 445.729 413.89 C 440.367 410.09 434.033 407.848 434.033 407.848 C 434.033 407.848 438.602 412.761 443.878 416.5 C 446.899 418.642 449.933 420.893 452.997 423.352 C 459.694 428.727 466.583 435.131 472.366 441.106 C 478.148 447.081 482.827 452.628 487.229 458.392 C 491.632 464.155 495.752 470.132 499.498 475.91 C 503.243 481.689 506.614 487.267 509.668 492.503 C 510.653 494.191 511.604 495.844 512.534 497.472 C 515.391 502.477 519.597 506.749 519.597 506.749 C 519.597 506.749 518.186 500.919 515.314 495.886 C 514.379 494.249 513.423 492.589 512.432 490.89 C 509.361 485.625 505.963 480.001 502.183 474.169 C 498.403 468.339 494.236 462.294 489.773 456.449 C 485.303 450.597 480.541 444.954 474.665 438.881 C 468.8 432.82 461.823 426.331 455 420.856 C 451.875 418.349 448.789 416.059 445.729 413.89 Z M 743.992 404.459 C 752.017 399.881 759.732 394.382 759.732 394.382 C 759.732 394.382 750.607 397.004 742.407 401.68 C 741.25 402.338 740.107 403.008 738.98 403.689 C 732.648 407.518 726.869 411.706 721.305 415.755 C 715.735 419.809 710.242 423.823 704.453 429.11 C 698.673 434.389 692.61 440.926 687.081 447.332 C 681.543 453.747 676.491 460.092 672.167 466.211 C 671.038 467.807 669.961 469.387 668.922 470.953 C 664.626 477.426 662.068 484.87 662.068 484.87 C 662.068 484.87 667.371 479.073 671.588 472.723 C 672.612 471.179 673.672 469.626 674.78 468.057 C 679.03 462.044 684.016 455.781 689.504 449.423 C 694.99 443.065 700.968 436.627 706.611 431.472 C 712.254 426.319 717.618 422.395 723.189 418.341 C 728.758 414.288 734.438 410.176 740.636 406.428 C 741.737 405.762 742.856 405.106 743.992 404.459 Z M 746.32 610.779 C 753.124 617.667 760.702 624.06 760.702 624.06 C 760.702 624.06 755.544 615.567 748.597 608.53 C 747.736 607.659 746.874 606.804 746.012 605.973 C 740.708 600.857 735.445 596.638 730.349 593.067 C 725.246 589.49 720.294 586.551 714.525 584.003 C 708.789 581.47 702.256 579.335 696.173 577.479 C 690.079 575.62 684.279 573.991 678.904 572.904 L 678.266 572.778 C 670.969 571.352 663.549 572.327 663.549 572.327 C 663.549 572.327 670.662 574.546 677.651 575.918 L 678.268 576.04 C 683.484 577.097 689.176 578.691 695.24 580.54 C 701.303 582.391 707.687 584.481 713.232 586.931 C 718.777 589.379 723.541 592.203 728.513 595.688 C 733.485 599.173 738.615 603.284 743.791 608.276 C 744.632 609.088 745.475 609.923 746.32 610.779 Z" style="fill: white; stroke-width: 1.103;"/>
</svg>