<?xml version="1.0" encoding="utf-8"?>
<svg width="100%" height="100%" viewBox="0 0 1200 1080" version="1.1" xmlns="http://www.w3.org/2000/svg" style="fill-rule:evenodd;clip-rule:evenodd;stroke-linejoin:round;stroke-miterlimit:2;">
  <path d="M 0 0 H 1200 V 1080 H 0 V 0 Z" id="Artboard1" style="fill:rgb(46,46,46);"/>
  <path d="M 498.937 810.275 L 498.586 805.306 L 501.703 805.306 C 505.312 805.306 507.836 804.825 509.273 803.864 C 510.711 802.904 511.43 801.142 511.43 798.579 C 511.43 797.532 511.383 796.4 511.289 795.181 C 510.883 795.743 510.496 796.208 510.129 796.575 C 509.762 796.943 509.301 797.306 508.746 797.665 C 508.191 798.025 507.527 798.294 506.754 798.474 C 505.98 798.654 505.102 798.743 504.117 798.743 C 500.711 798.743 497.91 797.517 495.715 795.064 C 493.519 792.611 492.422 789.446 492.422 785.571 C 492.422 783.509 492.727 781.63 493.336 779.935 C 493.945 778.239 494.773 776.845 495.82 775.751 C 496.867 774.657 498.074 773.818 499.441 773.232 C 500.809 772.646 502.266 772.353 503.812 772.353 C 507.266 772.353 509.836 773.611 511.523 776.126 L 511.945 772.986 L 517.43 772.986 L 517.43 796.915 C 517.43 798.196 517.367 799.349 517.242 800.372 C 517.117 801.396 516.898 802.38 516.586 803.325 C 516.273 804.271 515.863 805.095 515.355 805.798 C 514.848 806.501 514.211 807.142 513.445 807.72 C 512.68 808.298 511.777 808.771 510.738 809.138 C 509.699 809.505 508.492 809.786 507.117 809.982 C 505.742 810.177 504.195 810.275 502.477 810.275 L 498.937 810.275 Z M 505.102 794.454 C 509.336 794.454 511.477 791.618 511.523 785.946 L 511.523 785.056 C 511.492 782.509 510.961 780.54 509.93 779.15 C 508.898 777.759 507.391 777.056 505.406 777.04 C 503.156 777.04 501.453 777.81 500.297 779.349 C 499.141 780.888 498.562 782.962 498.562 785.571 C 498.562 788.087 499.144 790.196 500.309 791.9 C 501.473 793.603 503.07 794.454 505.102 794.454 Z" style="fill: white; fill-rule: nonzero; stroke-width: 1;"/>
  <path d="M 534.703 794.571 C 536.781 794.571 538.344 793.814 539.391 792.298 C 540.437 790.782 540.961 788.611 540.961 785.782 C 540.961 782.923 540.437 780.743 539.391 779.243 C 538.344 777.743 536.766 776.993 534.656 776.993 C 532.578 776.993 531.012 777.747 529.957 779.255 C 528.902 780.763 528.375 782.946 528.375 785.806 C 528.375 788.618 528.906 790.782 529.969 792.298 C 531.031 793.814 532.609 794.571 534.703 794.571 Z M 534.539 799.236 C 530.727 799.236 527.727 798.001 525.539 795.532 C 523.352 793.064 522.258 789.814 522.258 785.782 C 522.258 781.626 523.352 778.349 525.539 775.95 C 527.727 773.552 530.812 772.353 534.797 772.353 C 538.641 772.353 541.652 773.575 543.832 776.021 C 546.012 778.466 547.102 781.72 547.102 785.782 C 547.102 789.892 546 793.161 543.797 795.591 C 541.594 798.021 538.508 799.236 534.539 799.236 Z" style="fill: white; fill-rule: nonzero; stroke-width: 1;"/>
  <path d="M 552.117 809.454 L 552.117 772.986 L 557.391 772.986 L 558.047 776.595 C 558.891 775.236 560.012 774.185 561.41 773.443 C 562.809 772.7 564.367 772.329 566.086 772.329 C 568.195 772.329 570.051 772.915 571.652 774.087 C 573.254 775.259 574.469 776.857 575.297 778.88 C 576.125 780.904 576.539 783.189 576.539 785.736 C 576.539 789.72 575.574 792.966 573.644 795.474 C 571.715 797.982 569.102 799.236 565.805 799.236 C 564.18 799.236 562.707 798.911 561.387 798.263 C 560.066 797.614 558.961 796.736 558.07 795.626 C 558.195 797.876 558.258 799.142 558.258 799.423 L 558.258 809.15 L 552.117 809.454 Z M 564.492 794.548 C 566.32 794.548 567.762 793.782 568.816 792.251 C 569.871 790.72 570.398 788.532 570.398 785.689 C 570.398 782.798 569.867 780.626 568.805 779.173 C 567.742 777.72 566.266 776.993 564.375 776.993 C 560.312 776.993 558.258 779.759 558.211 785.29 C 558.211 788.478 558.738 790.818 559.793 792.31 C 560.848 793.802 562.414 794.548 564.492 794.548 Z" style="fill: white; fill-rule: nonzero; stroke-width: 1;"/>
  <path d="M 581.555 798.743 L 581.555 763.493 L 587.695 763.095 L 587.695 770.525 C 587.695 770.884 587.672 771.88 587.625 773.513 C 587.578 775.146 587.555 775.978 587.555 776.009 C 589.602 773.571 592.352 772.353 595.805 772.353 C 598.68 772.353 600.91 773.177 602.496 774.825 C 604.082 776.474 604.875 779.009 604.875 782.431 L 604.875 798.743 L 598.734 798.743 L 598.734 783.111 C 598.734 781.001 598.398 779.454 597.727 778.47 C 597.055 777.486 595.914 776.993 594.305 776.993 C 592.93 776.993 591.711 777.341 590.648 778.036 C 589.586 778.732 588.789 779.626 588.258 780.72 C 587.883 782.157 587.695 784.032 587.695 786.345 L 587.695 798.743 L 581.555 798.743 Z" style="fill: white; fill-rule: nonzero; stroke-width: 1;"/>
  <path d="M 622.828 799.236 C 618.687 799.236 615.465 798.044 613.16 795.661 C 610.855 793.279 609.703 789.986 609.703 785.782 C 609.703 781.689 610.789 778.431 612.961 776.009 C 615.133 773.587 618.094 772.368 621.844 772.353 C 625.391 772.353 628.144 773.462 630.105 775.681 C 632.066 777.9 633.047 780.845 633.047 784.517 C 633.047 784.782 633.043 785.212 633.035 785.806 C 633.027 786.4 633.023 786.837 633.023 787.118 L 615.891 787.118 C 615.953 789.525 616.613 791.388 617.871 792.708 C 619.129 794.029 620.859 794.689 623.062 794.689 C 625.875 794.689 628.578 793.954 631.172 792.486 L 632.039 796.845 C 629.461 798.439 626.391 799.236 622.828 799.236 Z M 616.008 783.251 L 627.258 783.251 C 627.258 781.157 626.781 779.548 625.828 778.423 C 624.875 777.298 623.555 776.736 621.867 776.736 C 620.289 776.736 618.957 777.282 617.871 778.376 C 616.785 779.47 616.164 781.095 616.008 783.251 Z" style="fill: white; fill-rule: nonzero; stroke-width: 1;"/>
  <path d="M 638.062 798.743 L 638.062 772.986 L 643.219 772.986 L 644.016 776.923 C 645.703 774.22 648.148 772.868 651.352 772.868 C 652.023 772.868 652.57 772.9 652.992 772.962 L 652.898 778.095 C 652.273 778.001 651.625 777.954 650.953 777.954 C 648.687 777.954 646.996 778.556 645.879 779.759 C 644.762 780.962 644.203 782.634 644.203 784.775 L 644.203 798.743 L 638.062 798.743 Z" style="fill: white; fill-rule: nonzero; stroke-width: 1;"/>
  <path d="M 668.039 799.236 C 664.227 799.236 661.125 798.196 658.734 796.118 C 656.344 794.04 655.148 791.298 655.148 787.892 C 655.148 786.798 655.266 785.751 655.5 784.751 C 655.734 783.751 656.094 782.775 656.578 781.821 C 657.062 780.868 657.547 780.025 658.031 779.29 C 658.516 778.556 659.141 777.681 659.906 776.665 L 669.656 764.361 L 676.922 764.361 L 666.281 777.79 C 667.422 777.4 668.375 777.204 669.141 777.204 C 672.5 777.204 675.25 778.208 677.391 780.216 C 679.531 782.224 680.602 784.837 680.602 788.056 C 680.602 791.4 679.43 794.099 677.086 796.154 C 674.742 798.208 671.727 799.236 668.039 799.236 Z M 667.758 794.548 C 669.82 794.548 671.434 793.958 672.598 792.779 C 673.762 791.599 674.344 790.048 674.344 788.126 C 674.344 786.111 673.797 784.521 672.703 783.357 C 671.609 782.193 669.984 781.611 667.828 781.611 C 665.641 781.611 664.031 782.196 663 783.368 C 661.969 784.54 661.453 786.142 661.453 788.173 C 661.453 790.095 662 791.638 663.094 792.802 C 664.187 793.966 665.742 794.548 667.758 794.548 Z" style="fill: white; fill-rule: nonzero; stroke-width: 1;"/>
  <path d="M 699.516 798.743 L 699.516 791.126 L 684.023 791.126 L 684.023 786.954 L 697.922 764.571 L 705.727 764.571 L 705.727 786.486 L 709.945 786.486 L 709.641 791.126 L 705.727 791.126 L 705.727 798.743 L 699.516 798.743 Z M 690.117 786.509 L 699.516 786.509 L 699.516 770.571 L 690.117 786.509 Z" style="fill: white; fill-rule: nonzero; stroke-width: 1;"/>
  <path d="M 391.161 540.005 L 391.161 330 L 391.216 330 L 391.216 539.996 L 391.161 540.005 Z M 811.207 749.991 L 811.207 750 L 486.718 750 L 486.718 749.096 C 486.718 748.403 485.906 747.581 483.933 746.102 C 482.418 744.997 477.332 741.18 472.575 737.656 C 456.05 725.431 428.367 704.842 427.463 704.148 L 426.522 703.409 L 430.996 680.647 C 433.452 668.175 436.036 654.891 436.694 651.156 C 437.387 647.422 438.09 644.016 438.291 643.569 C 438.501 643.113 441.533 639.342 445.102 635.16 C 452.936 626.021 455.109 623.391 465.326 611.211 C 471.772 603.46 473.205 601.533 473.205 600.511 C 473.205 599.041 468.942 577.913 462.587 547.975 L 458.031 526.611 L 459.629 521.324 C 461.72 514.312 464.303 506.15 468.732 492.409 L 472.384 481.087 L 472.384 442.165 L 460.204 432.77 C 453.521 427.557 447.531 422.882 446.919 422.307 C 445.933 421.412 445.322 419.394 441.67 405.699 C 436.045 384.416 435.68 382.974 435.927 382.773 C 436.091 382.608 449.868 373.953 472.877 359.472 C 474.639 358.404 476.154 357.5 476.237 357.5 C 476.364 357.5 479.478 359.591 483.13 362.138 C 495.848 370.958 507.453 379.121 511.598 382.033 C 514.794 384.288 516.108 384.982 517.177 384.982 C 518.281 384.982 522.308 382.481 539.244 371.241 L 559.961 357.5 L 598.518 357.418 C 619.718 357.372 637.723 357.336 638.545 357.336 C 639.577 357.336 641.01 357.948 643.265 359.345 C 645.027 360.449 649.3 363.033 652.66 365.088 C 656.066 367.133 664.594 372.383 671.651 376.692 C 680.754 382.271 684.863 384.571 685.721 384.571 C 686.625 384.571 691.838 381.285 706.602 371.442 C 717.43 364.22 726.378 358.313 726.497 358.313 C 726.707 358.313 759.922 379.55 763.574 382.015 C 764.807 382.873 765.957 383.658 766.158 383.777 C 766.323 383.896 765.957 385.904 765.3 388.287 C 764.232 392.022 758.206 413.597 756.316 420.362 L 755.622 422.782 L 748.446 427.949 C 744.511 430.78 738.275 435.253 734.622 437.837 C 727.939 442.594 727.939 442.594 727.939 444.192 C 727.939 445.58 732.13 467.648 741.068 513.792 C 742.429 520.722 743.534 526.912 743.534 527.569 C 743.534 528.227 740.575 543.566 736.969 561.616 C 733.353 579.666 730.404 595.334 730.404 596.439 C 730.404 598.447 730.486 598.53 735.855 604.802 C 748.692 619.812 761.904 635.151 764.077 637.616 L 766.414 640.282 L 767.482 646.226 C 768.057 649.513 769.162 655.868 769.984 660.378 C 774.412 685.276 776.339 696.187 776.302 696.716 C 776.302 697.045 774.869 698.515 773.143 699.994 C 771.417 701.51 767.601 704.833 764.652 707.417 C 756.526 714.475 724.789 741.628 719.658 745.892 C 717.814 747.407 716.91 748.43 716.91 749.087 L 716.873 749.991 L 811.207 749.991 Z M 628.182 495.613 L 628.191 495.604 L 641.686 509.218 L 661.124 509.218 C 671.788 509.218 680.727 509.053 680.973 508.889 C 681.466 508.56 685.648 503.593 693.235 494.326 C 696.193 490.756 699.635 486.538 700.95 484.977 L 703.288 482.11 L 703.288 462.014 C 703.288 447.698 703.169 441.626 702.84 441.015 C 702.347 440.111 699.142 436.221 688.606 423.832 L 683.11 417.349 L 638.773 417.349 L 636.472 419.486 C 635.203 420.672 630.483 425.183 625.973 429.492 C 621.462 433.793 617.071 437.938 616.249 438.677 L 614.688 439.992 L 614.688 481.955 L 628.182 495.613 Z M 639.714 418.719 C 639.714 418.801 638.855 419.659 637.787 420.645 L 635.815 422.489 L 637.659 420.563 C 639.348 418.719 639.714 418.39 639.714 418.719 Z M 637.248 502.132 C 637.241 502.446 636.87 502.108 635.404 500.526 L 633.761 498.763 L 635.523 500.407 C 636.472 501.274 637.248 502.05 637.248 502.132 Z M 628.639 493.523 C 628.639 493.851 628.31 493.523 626.959 492.126 L 625.562 490.564 L 627.123 491.961 C 627.945 492.747 628.639 493.44 628.639 493.523 Z M 631.916 496.8 C 631.916 497.129 631.588 496.846 630.437 495.613 L 629.25 494.262 L 630.602 495.449 C 631.305 496.143 631.916 496.718 631.916 496.8 Z M 674.043 483.726 L 674.043 483.717 L 669.04 488.72 L 660.631 488.684 C 656.002 488.684 651.857 488.519 651.364 488.318 C 650.916 488.154 648.451 485.817 645.95 483.151 L 641.357 478.312 L 641.357 440.75 L 654.605 440.75 L 667.807 440.786 L 679.129 451.615 L 679.092 465.146 L 679.092 478.677 L 674.043 483.726 Z M 647.301 463.585 C 647.429 464.032 649.154 464.114 655.18 464.032 L 662.895 463.913 L 662.895 447.917 L 647.301 447.917 L 647.182 455.504 C 647.137 459.649 647.182 463.302 647.301 463.585 Z M 625.361 490.245 C 625.361 490.564 624.959 490.163 622.494 487.615 L 619.828 484.831 L 622.613 487.497 C 624.128 488.93 625.361 490.208 625.361 490.245 Z M 628.027 430.077 C 627.16 430.98 626.338 431.72 626.219 431.72 C 626.1 431.72 626.758 430.98 627.616 430.077 C 628.483 429.173 629.305 428.433 629.424 428.433 C 629.543 428.433 628.885 429.173 628.027 430.077 Z M 620.23 437.463 C 619.362 438.367 618.541 439.106 618.422 439.106 C 618.303 439.106 618.961 438.367 619.819 437.463 C 620.686 436.559 621.508 435.82 621.627 435.82 C 621.745 435.82 621.088 436.559 620.23 437.463 Z M 492.224 503.612 L 492.215 503.63 L 495.903 508.432 L 532.077 508.432 L 539.053 501.375 L 546.065 494.28 L 549.187 486.319 L 553.122 484.639 C 555.305 483.689 557.478 482.667 558.007 482.338 L 558.911 481.763 L 558.911 438.413 L 556.984 435.993 C 550.913 428.488 543.855 419.869 542.75 418.682 L 541.518 417.367 L 497.474 417.367 L 488.079 427.128 C 482.874 432.46 477.789 437.837 476.721 439.024 L 474.794 441.197 L 475.031 481.553 L 481.76 490.163 C 485.495 494.92 490.169 500.946 492.224 503.612 Z M 486.116 431.711 C 485.248 432.615 484.426 433.354 484.308 433.354 C 484.189 433.354 484.846 432.615 485.705 431.711 C 486.572 430.807 487.394 430.067 487.512 430.067 C 487.631 430.067 486.974 430.807 486.116 431.711 Z M 529.913 418.299 C 535.565 418.344 530.936 418.381 519.532 418.381 C 508.129 418.381 503.5 418.335 509.197 418.299 C 514.858 418.216 524.216 418.216 529.913 418.299 Z M 478.117 440.12 C 477.341 440.896 476.638 441.553 476.52 441.553 C 476.392 441.553 476.931 440.896 477.707 440.12 C 478.483 439.344 479.186 438.686 479.304 438.686 C 479.432 438.686 478.894 439.344 478.117 440.12 Z M 534.634 483.762 L 534.643 483.762 L 530.251 488.318 L 512.776 488.318 L 502.723 478.266 L 502.723 440.741 L 528.361 440.741 L 533.858 445.79 C 536.898 448.574 539.518 451.204 539.683 451.651 C 540.212 453.003 540.094 476.915 539.518 478.147 C 539.226 478.713 537.053 481.261 534.634 483.762 Z M 508.667 463.585 C 508.786 464.032 510.475 464.114 516.337 464.032 L 523.842 463.913 L 523.842 447.917 L 508.667 447.917 L 508.549 455.504 C 508.503 459.649 508.549 463.302 508.667 463.585 Z M 523.23 452.637 L 523.239 452.637 C 523.239 454.683 523.157 456.326 523.075 456.326 C 522.947 456.326 522.828 454.646 522.746 452.637 C 522.664 450.592 522.746 448.949 522.947 448.949 C 523.111 448.949 523.23 450.629 523.23 452.637 Z M 497.638 419.732 L 497.629 419.732 C 496.935 420.435 496.36 421.047 496.277 421.047 C 495.949 421.047 496.241 420.718 497.51 419.568 L 498.825 418.381 L 497.638 419.732 Z M 561.294 536.837 L 561.321 536.818 L 563.211 538.745 L 598.728 538.745 L 604.59 531.651 C 607.831 527.798 613.574 520.703 617.39 515.983 L 624.32 507.373 L 626.082 507.255 C 627.516 507.136 627.844 506.972 627.844 506.314 C 627.844 505.702 627.552 505.538 626.53 505.538 C 625.05 505.538 625.297 505.867 617.381 493.477 C 608.762 479.983 609.383 480.713 607.411 480.594 C 606.133 480.512 605.685 480.594 605.685 481.042 C 605.685 481.37 606.142 481.781 606.671 481.9 C 607.612 482.146 608.388 483.215 615.445 494.244 C 621.563 503.767 623.243 506.597 622.996 506.798 C 622.384 507.41 589.406 519.06 588.383 519.06 C 587.845 519.06 587.973 517.006 589.077 506.835 C 589.652 501.585 590.1 497.193 590.1 497.074 C 590.1 496.791 564.709 496.91 564.544 497.239 C 564.426 497.403 564.672 501.42 565.12 506.141 C 565.53 510.898 565.859 515.737 565.896 516.969 C 565.896 519.023 565.85 519.142 564.992 518.941 C 562.28 518.33 541.974 511.071 541.856 510.66 C 541.655 510.204 545.59 500.936 549.653 492.281 L 551.497 488.264 L 554.492 486.912 C 556.126 486.182 559.824 484.657 562.691 483.552 C 565.558 482.448 567.941 481.297 567.941 481.051 C 567.941 479.946 564.864 480.558 559.532 482.776 C 550.31 486.547 550.265 486.584 548.996 489.131 C 545.626 495.86 540.34 508.003 540.176 509.354 C 540.048 510.341 539.765 510.87 539.354 510.87 C 539.025 510.87 539.765 512.057 541.198 513.865 C 544.476 517.846 558.957 534.371 561.294 536.837 Z M 549.598 589.911 L 549.589 589.911 L 562.225 600.082 L 564.773 600 C 566.16 599.917 575.802 599.835 586.22 599.799 C 602.216 599.671 605.21 599.589 605.95 599.059 C 606.443 598.73 609.474 596.229 612.715 593.481 C 615.92 590.778 622.85 584.989 628.018 580.643 C 633.231 576.297 637.705 572.399 637.988 571.988 C 638.6 571.13 639.138 571.294 626.173 567.888 C 621.782 566.702 616.988 565.432 615.509 565.022 C 614.03 564.656 607.511 562.894 600.947 561.169 C 594.428 559.443 587.781 557.681 586.183 557.27 C 584.631 556.813 582.211 556.238 580.814 555.955 C 577.902 555.38 577.619 555.417 562.563 559.808 C 557.478 561.278 552.721 562.639 551.981 562.757 C 551.196 562.876 550.128 563.25 549.516 563.533 C 548.941 563.862 546.978 564.519 545.17 565.012 C 543.362 565.505 538.897 566.82 535.245 567.925 C 531.593 569.03 528.352 569.934 528.023 569.934 C 527.695 569.934 527.202 570.18 526.955 570.509 C 526.426 571.166 527.366 571.988 549.598 589.911 Z M 558.089 593.727 C 557.149 593.526 556.774 592.54 553.287 581.629 C 550.739 573.595 549.516 569.203 549.598 568.135 C 549.68 566.245 548.247 566.82 563.257 562.602 C 569.283 560.922 574.368 559.69 575.482 559.69 L 577.372 559.69 L 577.372 593.654 L 576.35 593.901 C 575.081 594.229 559.495 594.065 558.098 593.736 L 558.089 593.727 Z M 580.44 592.778 C 580.321 592.531 580.276 584.898 580.321 575.877 L 580.44 559.47 L 581.627 559.352 C 582.239 559.27 584.293 559.598 586.137 560.091 C 602.088 564.319 607.995 565.999 608.534 566.492 C 609.027 566.985 609.027 567.514 608.616 569.979 C 608.086 573.093 603.777 590.732 603.165 592.376 L 602.8 593.316 L 591.725 593.316 C 583.234 593.316 580.568 593.198 580.449 592.787 L 580.44 592.778 Z" style="fill: white; stroke-width: 0.913;"/>
</svg>