<?xml version="1.0" encoding="utf-8"?>
<svg width="100%" height="100%" viewBox="0 0 1200 1080" version="1.1" xmlns="http://www.w3.org/2000/svg" style="fill-rule:evenodd;clip-rule:evenodd;stroke-linejoin:round;stroke-miterlimit:2;">
  <path d="M 0 0 H 1200 V 1080 H 0 V 0 Z" id="Artboard1" style="fill:rgb(46,46,46);"/>
  <path d="M 541.758 799.212 C 537.617 799.212 533.906 798.259 530.625 796.353 L 532.172 791.314 C 533.641 792.126 535.238 792.782 536.965 793.282 C 538.691 793.782 540.375 794.032 542.016 794.032 C 544.031 794.032 545.555 793.599 546.586 792.732 C 547.617 791.864 548.133 790.618 548.133 788.993 C 548.133 786.837 546.695 785.345 543.82 784.517 C 543.617 784.454 543.047 784.286 542.109 784.013 C 541.172 783.739 540.293 783.474 539.473 783.216 C 538.652 782.958 538.062 782.759 537.703 782.618 C 533.094 780.993 530.789 777.962 530.789 773.525 C 530.789 770.415 531.894 768.017 534.105 766.329 C 536.316 764.642 539.25 763.798 542.906 763.798 C 547.047 763.798 550.617 764.65 553.617 766.353 L 551.695 770.993 C 548.633 769.618 545.789 768.931 543.164 768.931 C 541.273 768.931 539.848 769.263 538.887 769.927 C 537.926 770.591 537.414 771.696 537.352 773.243 C 537.352 775.15 538.297 776.392 540.187 776.97 C 540.562 777.111 541.484 777.415 542.953 777.884 C 544.422 778.353 545.375 778.657 545.812 778.798 C 548.953 779.829 551.199 781.111 552.551 782.642 C 553.902 784.173 554.578 786.306 554.578 789.04 C 554.578 792.306 553.422 794.818 551.109 796.575 C 548.797 798.333 545.68 799.212 541.758 799.212 Z" style="fill: white; fill-rule: nonzero; stroke-width: 1;"/>
  <path d="M 569.695 799.095 C 567.945 799.095 566.488 798.888 565.324 798.474 C 564.16 798.06 563.25 797.407 562.594 796.517 C 561.937 795.626 561.473 794.575 561.199 793.364 C 560.926 792.154 560.789 790.657 560.789 788.876 L 560.789 776.712 L 556.57 776.712 L 556.805 773.384 L 561.211 772.986 L 563.18 766.001 L 566.93 765.978 L 566.93 772.986 L 573.328 772.986 L 573.328 776.712 L 566.93 776.712 L 566.93 788.993 C 566.93 790.946 567.211 792.337 567.773 793.165 C 568.336 793.993 569.375 794.407 570.891 794.407 C 571.781 794.407 572.734 794.329 573.75 794.173 L 573.914 798.579 C 573.883 798.579 573.691 798.614 573.34 798.685 C 572.988 798.755 572.652 798.818 572.332 798.872 C 572.012 798.927 571.602 798.978 571.102 799.025 C 570.602 799.071 570.133 799.095 569.695 799.095 Z" style="fill: white; fill-rule: nonzero; stroke-width: 1;"/>
  <path d="M 589.922 799.236 C 585.781 799.236 582.559 798.044 580.254 795.661 C 577.949 793.279 576.797 789.986 576.797 785.782 C 576.797 781.689 577.883 778.431 580.055 776.009 C 582.227 773.587 585.187 772.368 588.937 772.353 C 592.484 772.353 595.238 773.462 597.199 775.681 C 599.16 777.9 600.141 780.845 600.141 784.517 C 600.141 784.782 600.137 785.212 600.129 785.806 C 600.121 786.4 600.117 786.837 600.117 787.118 L 582.984 787.118 C 583.047 789.525 583.707 791.388 584.965 792.708 C 586.223 794.029 587.953 794.689 590.156 794.689 C 592.969 794.689 595.672 793.954 598.266 792.486 L 599.133 796.845 C 596.555 798.439 593.484 799.236 589.922 799.236 Z M 583.102 783.251 L 594.352 783.251 C 594.352 781.157 593.875 779.548 592.922 778.423 C 591.969 777.298 590.648 776.736 588.961 776.736 C 587.383 776.736 586.051 777.282 584.965 778.376 C 583.879 779.47 583.258 781.095 583.102 783.251 Z" style="fill: white; fill-rule: nonzero; stroke-width: 1;"/>
  <path d="M 611.836 799.236 C 609.445 799.236 607.512 798.575 606.035 797.255 C 604.559 795.935 603.82 794.032 603.82 791.548 C 603.82 788.876 604.695 786.896 606.445 785.607 C 608.195 784.318 610.836 783.501 614.367 783.157 C 614.852 783.095 615.375 783.032 615.937 782.97 C 616.5 782.907 617.133 782.845 617.836 782.782 C 618.539 782.72 619.094 782.665 619.5 782.618 L 619.5 781.259 C 619.5 779.696 619.141 778.56 618.422 777.849 C 617.703 777.138 616.609 776.782 615.141 776.782 C 613.047 776.782 610.461 777.368 607.383 778.54 C 607.367 778.493 607.109 777.782 606.609 776.407 C 606.109 775.032 605.852 774.329 605.836 774.298 C 608.867 773.001 612.148 772.353 615.68 772.353 C 619.148 772.353 621.672 773.107 623.25 774.614 C 624.828 776.122 625.617 778.564 625.617 781.939 L 625.617 798.743 L 621.07 798.743 C 621.055 798.681 620.883 798.157 620.555 797.173 C 620.227 796.189 620.062 795.665 620.062 795.603 C 618.781 796.853 617.527 797.771 616.301 798.357 C 615.074 798.943 613.586 799.236 611.836 799.236 Z M 613.5 794.876 C 614.922 794.876 616.16 794.536 617.215 793.857 C 618.269 793.177 619.023 792.353 619.477 791.384 L 619.477 786.415 C 619.43 786.415 619.019 786.446 618.246 786.509 C 617.473 786.571 617.055 786.603 616.992 786.603 C 614.508 786.821 612.687 787.29 611.531 788.009 C 610.375 788.728 609.797 789.884 609.797 791.478 C 609.797 792.571 610.117 793.411 610.758 793.997 C 611.398 794.583 612.312 794.876 613.5 794.876 Z" style="fill: white; fill-rule: nonzero; stroke-width: 1;"/>
  <path d="M 631.805 798.743 L 631.805 772.986 L 636.773 772.986 L 637.477 776.267 C 637.789 775.876 638.09 775.529 638.379 775.224 C 638.668 774.919 639.066 774.575 639.574 774.193 C 640.082 773.81 640.621 773.493 641.191 773.243 C 641.762 772.993 642.465 772.782 643.301 772.611 C 644.137 772.439 645.031 772.353 645.984 772.353 C 648.031 772.353 649.668 772.767 650.894 773.595 C 652.121 774.423 652.984 775.392 653.484 776.501 C 654.406 775.173 655.602 774.15 657.07 773.431 C 658.539 772.712 660.172 772.353 661.969 772.353 C 664.922 772.353 667.09 773.189 668.473 774.861 C 669.855 776.532 670.547 779.009 670.547 782.29 L 670.547 798.743 L 664.383 798.743 L 664.383 784.118 C 664.383 781.603 664.105 779.786 663.551 778.669 C 662.996 777.552 661.937 776.993 660.375 776.993 C 657.984 776.993 656.266 778.071 655.219 780.228 C 654.781 781.181 654.484 782.329 654.328 783.673 L 654.328 798.743 L 648.187 798.743 L 648.187 783.837 C 648.187 781.54 647.883 779.829 647.273 778.704 C 646.664 777.579 645.562 777.017 643.969 777.017 C 642.672 777.017 641.555 777.345 640.617 778.001 C 639.68 778.657 638.969 779.517 638.484 780.579 C 638.125 782.157 637.945 784.048 637.945 786.251 L 637.945 798.743 L 631.805 798.743 Z" style="fill: white; fill-rule: nonzero; stroke-width: 1;"/>
  <path d="M 599.664 342.878 C 497.046 342.878 412.983 422.725 405 524.189 L 509.697 567.872 C 518.838 561.545 529.698 558.16 540.815 558.174 C 541.854 558.174 542.88 558.203 543.892 558.259 L 590.457 490.146 L 590.457 489.192 C 590.457 448.207 623.501 414.854 664.12 414.854 C 704.738 414.854 737.782 448.207 737.782 489.192 C 737.782 530.176 704.738 563.542 664.12 563.542 C 663.557 563.542 663.008 563.528 662.448 563.515 L 596.036 611.316 C 596.079 612.202 596.106 613.087 596.106 613.959 C 596.106 644.738 571.3 669.772 540.815 669.772 C 514.054 669.772 491.664 650.488 486.605 624.964 L 411.718 593.718 C 434.91 676.461 510.244 737.123 599.664 737.123 C 707.551 737.123 795.001 648.858 795.001 540 C 795.001 431.131 707.551 342.878 599.664 342.878 Z M 527.411 641.978 L 503.419 631.972 C 507.665 640.91 515.029 648.387 524.797 652.493 C 545.908 661.374 570.251 651.269 579.05 629.947 C 583.308 619.699 583.334 608.168 579.12 597.902 C 574.903 587.558 566.934 579.49 556.716 575.189 C 546.555 570.931 535.676 571.085 526.118 574.726 L 550.912 585.07 C 566.485 591.621 573.849 609.666 567.356 625.38 C 560.877 641.093 542.984 648.529 527.411 641.978 Z M 713.206 489.192 C 713.206 461.885 691.181 439.65 664.125 439.65 C 637.055 439.65 615.031 461.885 615.031 489.192 C 615.031 516.501 637.055 538.722 664.125 538.722 C 691.181 538.722 713.206 516.501 713.206 489.192 Z M 627.329 489.108 C 627.329 468.56 643.843 451.906 664.197 451.906 C 684.562 451.906 701.076 468.56 701.076 489.108 C 701.076 509.657 684.562 526.312 664.195 526.312 C 643.843 526.312 627.328 509.657 627.328 489.11 L 627.329 489.108 Z" style="fill: white; fill-rule: nonzero; stroke-width: 1.523;"/>
</svg>