<?xml version="1.0" encoding="utf-8"?>
<svg width="100%" height="100%" viewBox="0 0 1200 1080" version="1.1" xmlns="http://www.w3.org/2000/svg" style="fill-rule:evenodd;clip-rule:evenodd;stroke-linejoin:round;stroke-miterlimit:2;">
  <path d="M 0 0 H 1200 V 1080 H 0 V 0 Z" id="Artboard1" style="fill:rgb(46,46,46);"/>
  <path d="M 506.742 799.095 C 504.992 799.095 503.535 798.888 502.371 798.474 C 501.207 798.06 500.297 797.407 499.641 796.517 C 498.984 795.626 498.519 794.575 498.246 793.364 C 497.973 792.154 497.836 790.657 497.836 788.876 L 497.836 776.712 L 493.617 776.712 L 493.852 773.384 L 498.258 772.986 L 500.227 766.001 L 503.977 765.978 L 503.977 772.986 L 510.375 772.986 L 510.375 776.712 L 503.977 776.712 L 503.977 788.993 C 503.977 790.946 504.258 792.337 504.82 793.165 C 505.383 793.993 506.422 794.407 507.937 794.407 C 508.828 794.407 509.781 794.329 510.797 794.173 L 510.961 798.579 C 510.93 798.579 510.738 798.614 510.387 798.685 C 510.035 798.755 509.699 798.818 509.379 798.872 C 509.059 798.927 508.648 798.978 508.148 799.025 C 507.648 799.071 507.18 799.095 506.742 799.095 Z" style="fill: white; fill-rule: nonzero; stroke-width: 1;"/>
  <path d="M 526.289 794.571 C 528.367 794.571 529.93 793.814 530.977 792.298 C 532.023 790.782 532.547 788.611 532.547 785.782 C 532.547 782.923 532.023 780.743 530.977 779.243 C 529.93 777.743 528.352 776.993 526.242 776.993 C 524.164 776.993 522.598 777.747 521.543 779.255 C 520.488 780.763 519.961 782.946 519.961 785.806 C 519.961 788.618 520.492 790.782 521.555 792.298 C 522.617 793.814 524.195 794.571 526.289 794.571 Z M 526.125 799.236 C 522.312 799.236 519.312 798.001 517.125 795.532 C 514.937 793.064 513.844 789.814 513.844 785.782 C 513.844 781.626 514.937 778.349 517.125 775.95 C 519.312 773.552 522.398 772.353 526.383 772.353 C 530.227 772.353 533.238 773.575 535.418 776.021 C 537.598 778.466 538.687 781.72 538.687 785.782 C 538.687 789.892 537.586 793.161 535.383 795.591 C 533.18 798.021 530.094 799.236 526.125 799.236 Z" style="fill: white; fill-rule: nonzero; stroke-width: 1;"/>
  <path d="M 562.289 796.728 C 560.242 798.4 557.547 799.236 554.203 799.236 C 550.859 799.236 548.168 798.4 546.129 796.728 C 544.09 795.056 543.07 792.603 543.07 789.368 L 543.07 772.986 L 549.234 772.986 L 549.234 789.134 C 549.234 791.056 549.637 792.446 550.441 793.306 C 551.246 794.165 552.523 794.595 554.273 794.595 C 555.992 794.595 557.246 794.169 558.035 793.318 C 558.824 792.466 559.219 791.071 559.219 789.134 L 559.219 772.986 L 565.359 772.986 L 565.359 789.368 C 565.359 792.587 564.336 795.04 562.289 796.728 Z" style="fill: white; fill-rule: nonzero; stroke-width: 1;"/>
  <path d="M 582.234 799.236 C 578.297 799.236 575.23 798.064 573.035 795.72 C 570.84 793.376 569.742 790.025 569.742 785.665 C 569.742 781.446 570.894 778.173 573.199 775.845 C 575.504 773.517 578.539 772.353 582.305 772.353 C 585.32 772.353 587.867 773.001 589.945 774.298 L 588.492 778.681 C 586.367 777.571 584.391 777.017 582.562 777.017 C 580.484 777.017 578.848 777.759 577.652 779.243 C 576.457 780.728 575.859 782.892 575.859 785.736 C 575.859 788.611 576.449 790.798 577.629 792.298 C 578.809 793.798 580.477 794.548 582.633 794.548 C 584.883 794.548 587.047 793.884 589.125 792.556 L 589.711 797.22 C 588.633 797.939 587.516 798.454 586.359 798.767 C 585.203 799.079 583.828 799.236 582.234 799.236 Z" style="fill: white; fill-rule: nonzero; stroke-width: 1;"/>
  <path d="M 594.586 798.743 L 594.586 763.493 L 600.727 763.095 L 600.727 770.525 C 600.727 770.884 600.703 771.88 600.656 773.513 C 600.609 775.146 600.586 775.978 600.586 776.009 C 602.633 773.571 605.383 772.353 608.836 772.353 C 611.711 772.353 613.941 773.177 615.527 774.825 C 617.113 776.474 617.906 779.009 617.906 782.431 L 617.906 798.743 L 611.766 798.743 L 611.766 783.111 C 611.766 781.001 611.43 779.454 610.758 778.47 C 610.086 777.486 608.945 776.993 607.336 776.993 C 605.961 776.993 604.742 777.341 603.68 778.036 C 602.617 778.732 601.82 779.626 601.289 780.72 C 600.914 782.157 600.727 784.032 600.727 786.345 L 600.727 798.743 L 594.586 798.743 Z" style="fill: white; fill-rule: nonzero; stroke-width: 1;"/>
  <path d="M 624.539 798.743 L 624.539 764.407 L 630.891 764.407 L 630.891 778.446 L 646.406 778.446 L 646.406 764.407 L 652.758 764.407 L 652.758 798.743 L 646.406 798.743 L 646.406 783.462 L 630.891 783.462 L 630.891 798.743 L 624.539 798.743 Z" style="fill: white; fill-rule: nonzero; stroke-width: 1;"/>
  <path d="M 660.164 798.743 L 660.164 764.407 L 666.516 764.407 L 666.516 793.681 L 680.883 793.681 L 680.695 798.743 L 660.164 798.743 Z" style="fill: white; fill-rule: nonzero; stroke-width: 1;"/>
  <path d="M 685.266 798.743 L 685.266 764.407 L 706.078 764.407 L 705.82 769.446 L 691.617 769.446 L 691.617 778.306 L 705.117 778.306 L 705.117 783.345 L 691.617 783.345 L 691.617 793.681 L 706.336 793.681 L 706.125 798.743 L 685.266 798.743 Z" style="fill: white; fill-rule: nonzero; stroke-width: 1;"/>
  <path d="M 596.676 733.382 C 595.181 732.654 594.568 731.695 588.818 721.691 C 584.985 714.983 584.601 714.485 583.413 714.255 C 582.723 714.14 581.918 714.102 581.612 714.178 C 581.305 714.217 579.427 716.095 577.472 718.318 C 567.046 730.009 566.816 730.201 563.213 730.201 C 560.875 730.201 558.92 729.357 557.808 727.862 C 557.425 727.326 555.7 722.764 553.975 717.705 L 550.832 708.582 L 549.03 707.815 L 547.229 707.087 L 540.138 712.415 C 530.977 719.315 530.44 719.583 527.258 719.353 C 521.969 719.008 521.777 718.586 519.784 703.177 C 518.787 695.319 518.749 695.281 516.028 694.131 C 515.031 693.71 514.303 694.016 506.445 697.811 C 497.399 702.219 495.482 702.794 492.646 701.874 C 491.879 701.606 490.729 700.801 490.078 700.072 C 488.928 698.769 488.928 698.693 488.928 694.438 C 488.928 692.061 489.119 687.232 489.311 683.629 L 489.733 677.112 L 488.123 675.694 C 487.241 674.889 486.283 674.237 486.014 674.237 C 485.746 674.237 481.836 675.196 477.352 676.346 C 466.427 679.144 463.591 679.144 461.368 676.307 C 460.716 675.464 460.563 674.736 460.563 672.206 C 460.563 669.714 460.946 667.683 462.671 661.167 C 465.047 652.274 465.047 652.351 462.556 649.974 L 461.444 648.901 L 454.775 649.514 C 445.345 650.319 441.167 650.281 439.596 649.322 C 437.564 648.096 436.989 646.831 437.028 643.764 C 437.066 641.158 437.181 640.813 441.167 632.533 L 445.23 624.024 L 444.464 622.491 C 443.467 620.536 442.509 619.961 439.672 619.616 C 433.309 618.926 423.458 617.354 422.615 616.933 C 420.507 615.821 419.779 614.595 419.625 611.796 C 419.51 609.957 419.625 608.845 420.047 608.078 C 420.392 607.427 422.883 603.9 425.605 600.221 C 432.198 591.289 431.7 592.248 430.895 590.14 C 430.09 588.07 430.358 588.223 421.274 585.042 C 409.583 580.978 408.816 580.365 408.816 575.689 C 408.816 572.507 409.314 571.817 415.524 566.298 C 423.037 559.628 424.532 558.057 424.532 556.868 C 424.532 554.875 423.842 553.955 421.197 552.422 C 405.06 542.993 405.328 543.184 405.06 539.696 C 404.868 536.86 405.098 535.863 406.325 534.636 C 406.861 534.1 411.039 531.417 415.677 528.657 C 424.263 523.482 424.532 523.29 424.532 520.876 C 424.532 519.764 423.267 518.499 414.834 510.948 C 412.112 508.571 409.659 506.118 409.353 505.543 C 409.046 504.93 408.816 503.397 408.816 502.017 C 408.816 500.1 409.008 499.295 409.698 498.26 C 410.694 496.804 411.653 496.344 422.807 492.319 C 430.051 489.713 430.818 489.214 431.278 486.876 C 431.508 485.726 431.086 485.075 426.142 478.443 C 423.19 474.495 420.507 470.739 420.162 470.049 C 419.395 468.554 419.357 464.989 420.085 463.303 C 421.12 460.811 422.117 460.504 433.731 459.01 C 438.062 458.473 441.972 457.86 442.432 457.668 C 442.892 457.476 443.697 456.556 444.234 455.636 L 445.23 453.95 L 441.321 445.747 C 437.449 437.621 437.411 437.506 437.258 434.248 L 437.104 430.951 L 438.484 429.571 C 439.327 428.728 440.401 428.077 441.244 427.923 C 442.011 427.77 446.955 427.885 452.207 428.115 C 462.863 428.651 462.326 428.766 464.051 426.007 L 464.817 424.742 L 462.633 416.577 C 460.218 407.493 459.834 404.043 461.061 401.82 C 462.786 398.638 466.312 398.562 477.773 401.552 C 486.743 403.851 486.666 403.851 488.698 401.743 L 489.694 400.708 L 489.311 394.192 C 488.698 383.728 488.813 379.895 489.694 378.438 C 490.691 376.751 491.917 376.023 494.179 375.755 C 496.709 375.487 497.552 375.793 507.096 380.278 L 515.108 384.073 L 516.794 383.076 C 517.714 382.539 518.634 381.734 518.826 381.274 C 519.017 380.815 519.592 376.713 520.167 372.19 C 521.394 362.301 521.624 361.266 523.119 359.886 C 524.422 358.621 526.109 358.238 528.83 358.468 C 530.938 358.698 533.2 360.039 540.674 365.674 C 547.191 370.58 546.846 370.427 548.724 369.852 C 549.605 369.584 550.564 369.009 550.832 368.587 C 551.1 368.127 552.634 364.102 554.243 359.579 C 555.853 355.056 557.463 350.84 557.847 350.188 C 558.23 349.537 559.111 348.693 559.84 348.348 C 561.488 347.505 565.206 347.428 566.701 348.195 C 567.276 348.502 570.074 351.3 572.911 354.443 C 580.998 363.374 581.152 363.489 582.8 363.182 C 583.567 363.029 584.486 362.646 584.831 362.339 C 585.215 361.994 587.093 359.043 589.01 355.746 C 595.986 343.864 596.024 343.825 600.164 343.825 C 604.304 343.825 604.189 343.71 611.165 355.516 C 613.043 358.698 614.883 361.649 615.266 362.109 C 615.688 362.531 616.646 363.029 617.489 363.182 C 618.946 363.412 619.061 363.374 621.322 360.997 C 622.587 359.656 625.654 356.359 628.069 353.676 C 630.484 350.993 633.052 348.54 633.78 348.195 C 635.773 347.237 639.99 347.582 641.293 348.808 C 642.711 350.111 642.979 350.763 645.624 358.391 C 649.304 369.009 649.649 369.584 652.447 370.082 C 653.405 370.274 654.325 369.737 659.5 365.827 C 668.738 358.851 669.543 358.391 672.303 358.391 C 675.062 358.391 676.979 359.273 677.976 360.921 C 678.397 361.649 679.087 365.406 679.969 371.423 C 680.697 376.598 681.387 381.083 681.54 381.389 C 681.847 382.194 684.377 383.766 685.335 383.804 C 685.795 383.804 689.935 381.964 694.534 379.741 C 703.926 375.18 705.19 374.873 708.41 376.406 C 711.4 377.863 711.63 379.55 710.863 393.617 C 710.442 401.13 710.48 401.322 712.972 402.855 L 714.352 403.698 L 722.708 401.552 C 734.782 398.447 737.887 398.6 739.458 402.318 C 740.34 404.465 740.072 406.65 737.733 415.811 L 735.472 424.665 L 736.545 426.39 C 737.158 427.31 737.963 428.192 738.385 428.345 C 738.807 428.46 742.333 428.383 746.205 428.153 C 757.205 427.54 759.199 427.617 760.732 428.651 C 762.38 429.725 763.377 431.718 763.377 433.788 C 763.377 435.858 762.303 438.656 758.432 446.705 C 756.746 450.27 755.327 453.567 755.327 453.988 C 755.327 455.176 757.052 457.553 758.087 457.783 C 758.585 457.898 762.495 458.473 766.788 459.01 C 778.134 460.428 779.016 460.734 780.089 463.226 C 780.702 464.683 780.817 468.247 780.281 469.627 C 780.089 470.125 777.904 473.269 775.413 476.642 C 768.053 486.646 768.59 485.765 769.088 487.298 C 769.356 488.026 769.855 488.908 770.238 489.253 C 770.66 489.636 773.879 490.939 777.406 492.204 C 790.86 497.034 791.358 497.379 791.358 501.863 C 791.358 503.895 791.167 504.93 790.63 505.812 C 790.247 506.463 787.602 509.031 784.804 511.561 C 781.967 514.053 778.747 517.004 777.598 518.077 L 775.528 520.032 L 775.873 521.719 C 776.294 523.75 777.138 524.44 785.455 529.155 C 788.752 531.072 792.278 533.333 793.237 534.176 L 795 535.786 L 795 538.891 C 795 541.919 794.961 541.996 793.658 543.299 C 792.93 544.066 788.79 546.711 784.459 549.24 C 776.831 553.649 776.601 553.84 776.064 555.412 C 775.643 556.715 775.643 557.175 776.026 557.942 C 776.294 558.44 779.246 561.276 782.542 564.228 C 785.877 567.179 789.212 570.284 790.017 571.166 L 791.435 572.737 L 791.282 575.957 C 791.09 580.748 791.128 580.71 777.061 585.731 C 771.35 587.725 770.123 588.3 769.74 589.105 C 768.475 591.634 768.513 591.749 772.844 597.614 C 780.741 608.27 780.626 608.04 780.626 611.145 C 780.626 614.02 780.051 615.438 778.364 616.588 C 777.483 617.239 769.51 618.658 762.265 619.463 C 757.55 619.999 757.014 620.268 755.787 622.606 L 755.021 624.062 L 759.084 632.572 C 762.763 640.276 763.185 641.311 763.3 643.573 C 763.453 646.448 762.725 648.019 760.617 649.361 C 759.429 650.089 758.969 650.127 753.027 649.936 C 749.539 649.821 744.901 649.552 742.716 649.322 C 738.845 648.901 738.73 648.939 737.848 649.744 C 737.35 650.242 736.583 651.162 736.2 651.814 C 735.395 653.194 735.28 652.504 738.807 665.958 C 740.608 672.781 740.378 675.196 737.695 677.457 C 735.779 679.067 733.287 678.876 722.899 676.269 L 714.007 674.084 L 712.627 675.119 C 711.86 675.694 711.093 676.499 710.902 676.844 C 710.71 677.227 710.71 679.872 710.902 683.245 C 711.438 693.02 711.323 698.309 710.633 699.536 C 709.752 700.992 708.142 701.874 705.765 702.104 C 703.312 702.334 702.431 701.989 692.771 697.236 C 684.99 693.403 684.76 693.326 682.614 695.204 L 681.387 696.278 L 680.007 705.975 C 679.279 711.303 678.397 716.171 678.091 716.785 C 677.209 718.471 675.906 719.161 673.146 719.353 C 669.811 719.621 668.929 719.161 660.305 712.53 L 653.252 707.125 L 651.834 707.547 C 651.067 707.777 650.147 708.275 649.802 708.659 C 649.457 709.042 648.039 712.683 646.621 716.785 C 642.519 728.859 641.868 729.856 637.498 730.124 C 633.588 730.392 633.627 730.431 624.351 719.966 C 619.521 714.485 619.099 714.102 617.834 714.102 C 615.994 714.102 615.113 715.137 611.088 722.266 C 606.182 730.929 604.994 732.654 603.422 733.382 C 601.697 734.225 598.362 734.187 596.676 733.382 Z M 607.178 680.37 C 624.619 679.335 639.185 676.039 653.904 669.791 C 657.085 668.45 659.883 667.185 660.113 667.031 C 660.382 666.878 661.033 663.505 661.57 659.48 C 662.873 650.127 664.291 642.001 665.096 639.395 C 665.94 636.482 669.274 633.147 672.149 632.303 C 675.369 631.345 677.937 631.537 690.855 633.837 L 703.006 635.983 L 705.229 633.53 C 718.568 618.964 729.952 598.841 735.74 579.56 C 739.458 567.256 741.068 556.945 741.413 543.491 C 741.643 534.521 741.068 522.984 740.378 521.642 C 740.187 521.297 734.705 518.346 728.227 515.049 C 715.54 508.61 714.122 507.651 712.55 504.24 C 711.822 502.707 711.63 501.672 711.63 498.989 C 711.63 494.887 711.707 494.657 717.763 482.966 C 720.331 478.022 722.784 473.154 723.168 472.195 L 723.934 470.432 L 721.941 467.021 C 711.592 449.35 695.071 432.025 677.899 420.755 C 663.333 411.249 647.387 404.388 631.327 400.747 L 627.11 399.788 L 617.336 409.524 C 611.318 415.542 606.91 419.605 605.837 420.142 C 604.342 420.909 603.575 421.062 600.279 421.062 C 597.059 421.062 596.177 420.909 594.644 420.18 C 593.418 419.567 589.929 416.347 583.107 409.448 L 573.294 399.635 L 567.468 401.092 C 550.602 405.27 535.845 411.786 521.509 421.407 C 508.285 430.3 496.44 441.531 486.666 454.486 C 483.331 458.933 478.54 466.254 477.045 469.167 L 476.278 470.7 L 482.45 482.813 L 488.621 494.887 L 488.468 498.989 C 488.314 503.627 487.739 505.237 485.439 507.498 C 484.596 508.341 479.498 511.216 471.832 515.164 L 459.604 521.489 L 459.106 526.664 C 458.455 533.41 458.723 550.007 459.566 556.562 C 461.099 568.253 463.936 579.369 468.114 590.063 C 469.954 594.854 474.592 604.399 477.275 608.96 C 481.875 616.856 489.503 627.32 495.559 634.105 L 497.207 635.945 L 503.11 634.948 C 506.368 634.412 511.888 633.453 515.338 632.802 C 525.649 630.962 528.907 631.345 532.471 634.91 C 533.736 636.213 534.618 637.516 535.078 638.781 C 535.768 640.851 537.378 650.281 538.796 660.438 C 539.256 663.926 539.678 666.801 539.716 666.878 C 539.754 666.916 541.978 667.913 544.661 669.101 C 559.571 675.541 576.399 679.527 592.229 680.37 C 600.202 680.754 600.164 680.754 607.178 680.37 Z M 517.139 667.798 C 520.512 666.035 523.042 662.202 523.042 658.713 C 523.042 655.225 520.551 651.431 517.101 649.591 C 514.993 648.479 511.159 648.479 509.051 649.591 C 506.79 650.779 504.49 653.462 503.493 656.069 C 502.765 658.062 502.688 658.56 503.072 660.247 C 504.222 665.306 508.86 669.101 513.498 668.756 C 514.648 668.641 516.296 668.22 517.139 667.798 Z M 690.241 668.22 C 695.799 666.073 698.636 660.017 696.413 655.034 C 694.918 651.661 690.625 648.556 687.443 648.556 C 682.307 648.556 677.132 653.615 677.132 658.752 C 677.132 663.62 682.23 668.833 686.983 668.871 C 687.903 668.871 689.36 668.603 690.241 668.22 Z M 462.173 502.668 C 466.159 501.327 469.647 496.382 469.302 492.664 C 468.804 487.643 463.974 482.966 459.221 482.966 C 454.123 482.966 449.063 488.218 449.063 493.469 C 449.063 497.072 452.437 501.365 456.231 502.745 C 458.186 503.435 460.064 503.397 462.173 502.668 Z M 744.365 502.515 C 748.083 501.097 751.073 496.919 751.111 493.086 C 751.111 488.064 745.898 482.928 740.8 482.966 C 736.545 483.005 731.677 487.489 730.949 492.089 C 730.374 495.769 732.827 499.947 736.89 502.017 C 739.727 503.512 741.375 503.627 744.365 502.515 Z M 603.997 399.942 C 607.715 398.063 610.245 394.269 610.245 390.589 C 610.207 385.491 605.109 380.623 599.857 380.623 C 596.331 380.623 591.923 384.034 590.466 387.906 C 589.738 389.746 589.699 390.244 590.083 392.122 C 590.581 394.614 592.574 397.642 594.529 398.983 C 596.484 400.287 599.666 401.322 601.045 401.053 C 601.659 400.938 603 400.44 603.997 399.942 Z" style="fill: white; fill-rule: nonzero; stroke-width: 0.767;"/>
  <path d="M 565.973 585.195 C 558.153 582.857 552.442 577.03 550.372 569.211 C 549.759 566.949 549.72 563.883 549.682 534.905 C 549.682 499.41 549.644 500.484 552.365 495.271 C 555.01 490.211 559.226 486.646 564.899 484.576 L 567.698 483.541 L 600.087 483.426 C 628.26 483.35 632.822 483.388 635.16 483.925 C 641.868 485.381 646.966 489.444 650.147 495.692 C 652.639 500.637 652.6 499.794 652.6 534.905 C 652.6 570.207 652.715 568.713 650.032 574.194 C 648.192 578.027 644.551 581.63 640.68 583.547 C 635.275 586.191 636.77 586.076 601.045 586.038 C 568.924 586.038 568.847 586.038 565.973 585.195 Z M 630.062 575.689 C 633.128 575.037 635.735 573.657 637.843 571.587 C 640.45 569.019 641.829 566.144 642.251 562.196 C 642.711 558.248 642.711 510.028 642.251 506.846 C 641.331 500.254 636.54 495.117 629.985 493.737 C 628.452 493.392 620.403 493.316 599.857 493.392 L 571.876 493.507 L 569.001 494.926 C 565.321 496.765 563.136 498.912 561.411 502.515 L 560.031 505.39 L 559.916 533.678 C 559.84 558.44 559.878 562.273 560.415 564.343 C 561.871 570.092 566.049 574.156 571.914 575.574 C 574.52 576.225 627.072 576.302 630.062 575.689 Z" style="fill: white; fill-rule: nonzero; stroke-width: 0.767;"/>
</svg>